<svg width="390" height="154" viewBox="0 0 390 154" fill="none" xmlns="http://www.w3.org/2000/svg">
<g filter="url(#filter0_d_529_242)">
<path d="M18.66 72.0924H-6V66.1164H18.66V72.0924ZM66.7405 72.0924C64.9885 72.0924 63.3325 71.7804 61.7725 71.1564C60.2365 70.5324 58.8565 69.6684 57.6325 68.5644C57.5605 68.4924 57.4885 68.4204 57.4165 68.3484C57.3685 68.2764 57.3085 68.2044 57.2365 68.1324C56.0125 66.9084 55.0405 65.4804 54.3205 63.8484C53.6245 62.2164 53.2765 60.4644 53.2765 58.5924C53.2765 57.5604 53.0725 56.5884 52.6645 55.6764C52.2805 54.7404 51.7405 53.9364 51.0445 53.2644C50.3725 52.5924 49.5685 52.0644 48.6325 51.6804C47.7205 51.2724 46.7485 51.0684 45.7165 51.0684H36.3925V72.0924H27.6445V45.0924H48.5245C50.3005 45.0924 51.9565 45.4044 53.4925 46.0284C55.0285 46.6524 56.4085 47.5284 57.6325 48.6564C59.0005 49.8804 60.0685 51.3564 60.8365 53.0844C61.6285 54.7884 62.0245 56.6244 62.0245 58.5924C62.0245 59.6484 62.2165 60.6324 62.6005 61.5444C63.0085 62.4564 63.5485 63.2604 64.2205 63.9564C64.8925 64.6284 65.6845 65.1684 66.5965 65.5764C67.5085 65.9604 68.4925 66.1524 69.5485 66.1524H78.4765V45.0924H87.2245V72.0924H66.7405ZM120.894 72.0924H96.2344V66.1164H120.894V72.0924ZM174.303 65.6844H174.267V65.6484L174.303 65.6844ZM181.467 45.0924C182.619 45.0924 183.699 45.3204 184.707 45.7764C185.715 46.2084 186.591 46.8084 187.335 47.5764C188.103 48.3204 188.703 49.1964 189.135 50.2044C189.591 51.2124 189.819 52.2924 189.819 53.4444C189.819 54.5964 189.591 55.6764 189.135 56.6844C188.703 57.6924 188.103 58.5804 187.335 59.3484C186.591 60.0924 185.715 60.6804 184.707 61.1124C183.699 61.5444 182.619 61.7604 181.467 61.7604H165.159C165.783 63.0564 166.695 64.1124 167.895 64.9284C169.119 65.7204 170.487 66.1164 171.999 66.1164H189.783V72.0924H169.191C167.415 72.0924 165.747 71.7804 164.187 71.1564C162.627 70.5324 161.235 69.6564 160.011 68.5284C159.939 68.4564 159.867 68.3844 159.795 68.3124C159.747 68.2404 159.687 68.1684 159.615 68.0964C158.751 67.2324 158.007 66.2724 157.383 65.2164C156.759 64.1364 156.303 62.9844 156.015 61.7604H138.699V72.0924H129.879V45.0924H181.467ZM138.699 55.7844H178.659C179.283 55.7844 179.847 55.5564 180.351 55.1004C180.783 54.5964 180.999 54.0444 180.999 53.4444C180.999 52.7964 180.771 52.2444 180.315 51.7884C179.859 51.3084 179.307 51.0684 178.659 51.0684H138.699V55.7844ZM249.688 45.2364C250.936 45.4524 252.088 45.8724 253.144 46.4964C254.224 47.1204 255.16 47.9004 255.952 48.8364C256.744 49.7484 257.356 50.7924 257.788 51.9684C258.244 53.1444 258.472 54.3804 258.472 55.6764V61.5084C258.472 62.9724 258.184 64.3524 257.608 65.6484C257.056 66.9204 256.3 68.0364 255.34 68.9964C254.38 69.9564 253.252 70.7124 251.956 71.2644C250.684 71.8164 249.328 72.0924 247.888 72.0924H209.44C208 72.0924 206.632 71.8164 205.336 71.2644C204.064 70.7124 202.948 69.9564 201.988 68.9964C201.028 68.0364 200.26 66.9204 199.684 65.6484C199.132 64.3524 198.856 62.9724 198.856 61.5084V55.6764C198.88 54.2604 199.168 52.9164 199.72 51.6444C200.272 50.3724 201.016 49.2564 201.952 48.2964C202.888 47.3364 203.992 46.5804 205.264 46.0284C206.56 45.4524 207.952 45.1404 209.44 45.0924H247.888C248.2 45.0924 248.5 45.1044 248.788 45.1284C249.1 45.1524 249.4 45.1884 249.688 45.2364ZM249.688 55.5324C249.688 54.9084 249.568 54.3324 249.328 53.8044C249.112 53.2524 248.8 52.7724 248.392 52.3644C247.984 51.9564 247.504 51.6324 246.952 51.3924C246.424 51.1524 245.848 51.0324 245.224 51.0324H212.104C211.48 51.0324 210.892 51.1524 210.34 51.3924C209.812 51.6324 209.344 51.9564 208.936 52.3644C208.528 52.7724 208.204 53.2524 207.964 53.8044C207.748 54.3324 207.64 54.9084 207.64 55.5324V61.6524C207.64 62.2764 207.748 62.8644 207.964 63.4164C208.204 63.9444 208.528 64.4124 208.936 64.8204C209.344 65.2044 209.812 65.5164 210.34 65.7564C210.892 65.9964 211.48 66.1164 212.104 66.1164H245.224C245.848 66.1164 246.424 65.9964 246.952 65.7564C247.504 65.5164 247.984 65.2044 248.392 64.8204C248.8 64.4124 249.112 63.9444 249.328 63.4164C249.568 62.8644 249.688 62.2764 249.688 61.6524V55.5324ZM326.15 72.0924H266.426V45.0564H275.21V66.1164H326.15V72.0924ZM394.88 72.0924H335.156V45.0564H343.94V66.1164H394.88V72.0924Z" fill="#BED35A"/>
</g>
<g filter="url(#filter1_d_529_242)">
<path d="M5.01781 10.16C5.01781 10.88 5.25781 11.48 5.73781 11.96C6.00448 12.1733 6.28448 12.36 6.57781 12.52C6.87115 12.6533 7.20448 12.72 7.57781 12.72H52.1778C53.2178 12.72 54.2178 12.8933 55.1778 13.24C56.1378 13.56 57.0045 14.0133 57.7778 14.6C58.5512 15.16 59.2178 15.84 59.7778 16.64C60.3378 17.44 60.7645 18.3067 61.0578 19.24C61.2978 20.04 61.4178 20.8933 61.4178 21.8C61.4178 23.08 61.1778 24.28 60.6978 25.4C60.2178 26.4933 59.5511 27.4533 58.6978 28.28C57.8711 29.1067 56.8978 29.76 55.7778 30.24C54.6578 30.72 53.4578 30.96 52.1778 30.96H-4.74219V24.36H49.0578C49.7778 24.36 50.4045 24.12 50.9378 23.64C51.4178 23.16 51.6578 22.5467 51.6578 21.8C51.6578 21.1067 51.4045 20.5067 50.8978 20C50.3911 19.4933 49.7778 19.24 49.0578 19.24H4.45781C3.41781 19.24 2.41781 19.08 1.45781 18.76C0.524479 18.44 -0.328854 17.9867 -1.10219 17.4C-1.87552 16.8133 -2.55552 16.12 -3.14219 15.32C-3.70219 14.52 -4.11552 13.6533 -4.38219 12.72C-4.62219 11.92 -4.74219 11.0667 -4.74219 10.16C-4.74219 8.88 -4.50219 7.69333 -4.02219 6.6C-3.54219 5.48 -2.88885 4.50667 -2.06219 3.68C-1.20885 2.85333 -0.235521 2.2 0.857813 1.72C1.97781 1.24 3.17781 0.999998 4.45781 0.999998H61.4178V7.6H7.57781C6.88448 7.6 6.28448 7.85333 5.77781 8.36C5.27115 8.84 5.01781 9.44 5.01781 10.16ZM136.849 0.999998V7.6H108.609V31H98.8494V7.6H70.6094V0.999998H136.849ZM157.408 31C155.782 31 154.248 30.6933 152.808 30.08C151.395 29.4667 150.155 28.6267 149.088 27.56C148.022 26.4933 147.182 25.2533 146.568 23.84C145.955 22.4 145.648 20.8667 145.648 19.24V0.999998H155.408V19.4C155.408 20.0933 155.528 20.7467 155.768 21.36C156.035 21.9467 156.395 22.4667 156.848 22.92C157.302 23.3733 157.822 23.7333 158.408 24C159.022 24.2667 159.675 24.4 160.368 24.4H202.168V0.999998H211.888V31H157.408ZM286.698 7.6C287.072 8.37333 287.365 9.2 287.578 10.08C287.792 10.9333 287.898 11.8267 287.898 12.76V19.24C287.898 20.1733 287.792 21.0667 287.578 21.92C287.392 22.7467 287.112 23.5467 286.738 24.32C285.938 26.0267 284.778 27.4667 283.258 28.64C281.765 29.7867 280.058 30.52 278.138 30.84C277.978 30.8933 277.805 30.9333 277.618 30.96C277.458 30.96 277.285 30.9733 277.098 31H221.898V0.999998C232.272 0.999998 241.565 1.01333 249.778 1.04C252.098 1.04 254.405 1.05333 256.698 1.08C258.992 1.08 261.178 1.08 263.258 1.08C265.338 1.08 267.272 1.09333 269.058 1.12C270.845 1.12 272.405 1.12 273.738 1.12C275.072 1.12 276.125 1.13333 276.898 1.16C277.672 1.16 278.085 1.16 278.138 1.16C280.032 1.48 281.725 2.21333 283.218 3.36C284.712 4.50667 285.872 5.92 286.698 7.6ZM278.138 12.6C278.138 11.9067 278.005 11.2667 277.738 10.68C277.498 10.0667 277.152 9.53333 276.698 9.08C276.245 8.62667 275.712 8.28 275.098 8.04C274.512 7.77333 273.872 7.64 273.178 7.64H238.858V7.6H231.658V24.36H238.858V24.32H273.778C274.392 24.2667 274.965 24.1067 275.498 23.84C276.032 23.5467 276.485 23.1867 276.858 22.76C277.258 22.3067 277.565 21.8 277.778 21.24C278.018 20.6533 278.138 20.04 278.138 19.4V12.6ZM362.083 0.999998V4.28C362.083 5.72 361.829 7.09333 361.323 8.4C360.843 9.70667 360.163 10.88 359.283 11.92C358.429 12.9333 357.403 13.7867 356.203 14.48C355.029 15.1733 353.749 15.64 352.363 15.88C352.016 15.9333 351.683 15.9733 351.363 16C351.043 16.0267 350.696 16.04 350.323 16.04H333.843V31H324.123V16.04H307.603C307.256 16.04 306.909 16.0267 306.563 16C306.243 15.9733 305.923 15.9333 305.603 15.88C304.216 15.64 302.923 15.1733 301.723 14.48C300.549 13.7867 299.523 12.9333 298.643 11.92C297.789 10.88 297.109 9.70667 296.603 8.4C296.123 7.09333 295.883 5.72 295.883 4.28V0.999998H305.603V4.44C305.603 5.13333 305.736 5.78667 306.003 6.4C306.269 6.98667 306.629 7.50666 307.083 7.96C307.536 8.41333 308.056 8.77333 308.643 9.04C309.256 9.30667 309.909 9.44 310.603 9.44H347.363C348.029 9.44 348.669 9.30667 349.283 9.04C349.896 8.77333 350.429 8.41333 350.883 7.96C351.336 7.50666 351.696 6.98667 351.963 6.4C352.229 5.78667 352.363 5.13333 352.363 4.44V0.999998H362.083ZM398.283 31H370.883V24.36H398.283V31Z" fill="#BED35A"/>
</g>
<defs>
<filter id="filter0_d_529_242" x="-9" y="44.0564" width="406.879" height="33.036" filterUnits="userSpaceOnUse" color-interpolation-filters="sRGB">
<feFlood flood-opacity="0" result="BackgroundImageFix"/>
<feColorMatrix in="SourceAlpha" type="matrix" values="0 0 0 0 0 0 0 0 0 0 0 0 0 0 0 0 0 0 127 0" result="hardAlpha"/>
<feOffset dy="2"/>
<feGaussianBlur stdDeviation="1.5"/>
<feComposite in2="hardAlpha" operator="out"/>
<feColorMatrix type="matrix" values="0 0 0 0 0 0 0 0 0 0 0 0 0 0 0 0 0 0 0.48 0"/>
<feBlend mode="normal" in2="BackgroundImageFix" result="effect1_dropShadow_529_242"/>
<feBlend mode="normal" in="SourceGraphic" in2="effect1_dropShadow_529_242" result="shape"/>
</filter>
<filter id="filter1_d_529_242" x="-7.74219" y="0" width="409.023" height="36" filterUnits="userSpaceOnUse" color-interpolation-filters="sRGB">
<feFlood flood-opacity="0" result="BackgroundImageFix"/>
<feColorMatrix in="SourceAlpha" type="matrix" values="0 0 0 0 0 0 0 0 0 0 0 0 0 0 0 0 0 0 127 0" result="hardAlpha"/>
<feOffset dy="2"/>
<feGaussianBlur stdDeviation="1.5"/>
<feComposite in2="hardAlpha" operator="out"/>
<feColorMatrix type="matrix" values="0 0 0 0 0 0 0 0 0 0 0 0 0 0 0 0 0 0 0.48 0"/>
<feBlend mode="normal" in2="BackgroundImageFix" result="effect1_dropShadow_529_242"/>
<feBlend mode="normal" in="SourceGraphic" in2="effect1_dropShadow_529_242" result="shape"/>
</filter>
</defs>
</svg>
