<svg width="141" height="49" viewBox="0 0 141 49" fill="none" xmlns="http://www.w3.org/2000/svg">
<path d="M106.422 2.45917L106.441 0.959216L106.427 0.959176L106.422 2.45917ZM138.422 29.5701L136.945 29.3095L138.422 29.5701ZM135.625 36.7914C135.481 37.6072 136.026 38.3853 136.842 38.5292C137.658 38.6731 138.436 38.1284 138.58 37.3126L135.625 36.7914ZM23.231 46.9539L23.2267 48.4539L23.231 46.9539ZM22.2415 3.46652L22.169 1.96828L22.2415 3.46652ZM46.6021 2.28718L46.6065 0.787188L46.568 0.787079L46.5296 0.788939L46.6021 2.28718ZM4.48321 36.1298L5.78009 35.3761L4.48321 36.1298ZM106.404 3.95906L116.034 4.07628L116.07 1.0765L106.441 0.959281L106.404 3.95906ZM136.945 29.3095L135.625 36.7914L138.58 37.3126L139.899 29.8307L136.945 29.3095ZM114.682 45.7168L23.2353 45.4539L23.2267 48.4539L114.673 48.7168L114.682 45.7168ZM22.314 4.96477L46.6747 3.78543L46.5296 0.788939L22.169 1.96828L22.314 4.96477ZM46.5978 3.78718L106.418 3.95916L106.427 0.959176L46.6065 0.787188L46.5978 3.78718ZM23.2353 45.4539C16.04 45.4333 9.39565 41.5971 5.78009 35.3761L3.18633 36.8836C7.33737 44.0259 14.9657 48.4302 23.2267 48.4539L23.2353 45.4539ZM116.034 4.07628C129.295 4.23771 139.249 16.2492 136.945 29.3095L139.899 29.8307C142.525 14.9479 131.182 1.26046 116.07 1.0765L116.034 4.07628ZM5.78009 35.3761C-1.85087 22.2461 7.14537 5.69911 22.314 4.96477L22.169 1.96828C4.7538 2.81138 -5.57477 21.809 3.18633 36.8836L5.78009 35.3761Z" fill="#BDD35A"/>
</svg>
