<svg width="359" height="114" viewBox="0 0 359 114" fill="none" xmlns="http://www.w3.org/2000/svg">
<path d="M357.234 106.343L357.234 106.343C356.837 105.4 356.282 104.456 355.684 103.507C355.485 103.191 355.281 102.874 355.077 102.557C354.669 101.924 354.26 101.288 353.887 100.654C350.361 94.9303 349.705 88.9664 349.684 83.1308C349.658 75.9402 347.184 69.4588 343.752 63.0496C342.036 59.8449 340.083 56.6603 338.077 53.4145C337.961 53.2266 337.845 53.0385 337.728 52.8502C335.834 49.7863 333.905 46.6643 332.098 43.42C331.603 42.5426 331.562 41.4452 331.653 40.2823C331.691 39.7818 331.755 39.2648 331.819 38.7447C331.83 38.6591 331.84 38.5735 331.851 38.4878C331.925 37.8801 331.994 37.2699 332.021 36.6716C332.076 35.4737 331.963 34.3361 331.394 33.3766C330.827 32.4203 329.798 31.625 327.988 31.1313C326.55 30.7445 323.86 29.6469 320.319 28.1359C318.993 27.5701 317.547 26.946 316.001 26.2788C313.413 25.162 310.546 23.9243 307.492 22.6367C297.737 18.5235 286.101 13.9069 275.703 11.1179C270.377 9.69276 264.374 7.60625 259.583 5.68878C257.188 4.73005 255.094 3.81299 253.538 3.04138C252.761 2.65566 252.116 2.3055 251.634 2.00396C251.394 1.85322 251.192 1.71375 251.035 1.58723C250.879 1.46191 250.761 1.34461 250.692 1.23727L250.689 1.23198L250.689 1.23189C250.666 1.18991 250.618 1.1418 250.535 1.09091C250.452 1.04052 250.341 0.991344 250.201 0.944213C249.921 0.849951 249.535 0.76785 249.054 0.697796C248.091 0.557792 246.76 0.468006 245.152 0.419674C241.936 0.323038 237.624 0.392432 232.963 0.553303C223.642 0.875036 212.933 1.56238 206.825 2.01694C190.874 3.22846 169.325 3.05981 147.186 2.84293C146.452 2.83574 145.718 2.82851 144.984 2.82127C123.543 2.60985 101.705 2.39453 83.9889 3.37826C73.115 3.99436 62.8735 3.72766 52.7933 3.31625C50.7752 3.23389 48.7637 3.14573 46.7549 3.0577C38.7286 2.70593 30.7456 2.35605 22.5606 2.38522C20.2593 2.39342 15.6991 2.40969 11.398 2.64848C9.24729 2.7679 7.16355 2.94284 5.46045 3.19982C4.60885 3.32832 3.85428 3.47706 3.23501 3.64903C2.61407 3.82147 2.13749 4.01507 1.83525 4.22946C-0.0889082 5.64002 -0.0947372 8.13257 0.410469 10.7064C0.617195 11.7597 0.907216 12.816 1.17875 13.8048C1.23777 14.0198 1.29593 14.2316 1.35215 14.4394C1.66551 15.5978 1.92137 16.6417 1.92415 17.4219C1.94467 23.1807 3.11311 28.8951 4.54146 34.6091C4.95229 36.2526 5.38475 37.8965 5.8175 39.5413C6.88819 43.6112 7.96042 47.687 8.7102 51.7767C8.7102 51.777 8.71032 51.7772 8.71032 51.7774L8.61197 51.7955C11.1999 65.3489 13.3245 82.5978 7.18262 96.1247L357.234 106.343ZM357.234 106.343L357.235 106.346C357.274 106.431 357.354 106.546 357.443 106.675C357.455 106.693 357.468 106.711 357.48 106.729C357.587 106.884 357.709 107.066 357.816 107.266C358.023 107.652 358.165 108.091 358.048 108.525C357.718 108.593 357.17 108.617 356.431 108.604C355.652 108.591 354.671 108.539 353.529 108.461C352.291 108.377 350.867 108.264 349.309 108.14C347.991 108.035 346.577 107.923 345.099 107.814C338.65 107.339 330.983 106.933 324.787 107.533C314.717 108.492 304.009 108.674 293.197 108.705C290.586 108.713 287.969 108.712 285.353 108.711C277.14 108.707 268.943 108.703 260.998 108.972C210.209 110.683 157.423 110.857 106.165 111.027C101.371 111.042 96.5908 111.058 91.8267 111.075C80.8153 111.114 69.8051 111.455 58.7767 111.797L58.7165 111.799C47.6676 112.141 36.6003 112.484 25.4927 112.523C24.9324 112.525 23.6508 112.572 21.9926 112.631C20.1263 112.698 17.7827 112.783 15.4535 112.841C13.252 112.895 11.0616 112.927 9.29305 112.898C8.40868 112.883 7.63099 112.854 7.01072 112.805C6.3867 112.756 5.93284 112.688 5.68885 112.6L5.68885 112.6L5.68576 112.599C5.62364 112.579 5.55733 112.518 5.49486 112.391C5.43304 112.265 5.38227 112.089 5.3436 111.863C5.26637 111.412 5.24101 110.789 5.25689 110.045C5.28861 108.559 5.48443 106.611 5.74506 104.642C6.00556 102.673 6.33048 100.686 6.61969 99.1229C6.7643 98.3413 6.89987 97.6662 7.01391 97.1526C7.12862 96.636 7.21956 96.2928 7.2741 96.1651L357.234 106.343Z" fill="#B89BED" fill-opacity="0.93" stroke="white" stroke-width="0.2"/>
</svg>
