<svg width="316" height="149" viewBox="0 0 316 149" fill="none" xmlns="http://www.w3.org/2000/svg">
<path d="M329.876 141.578L329.876 141.578C329.522 140.342 329.022 139.104 328.483 137.862C328.304 137.448 328.12 137.033 327.936 136.617C327.569 135.789 327.201 134.959 326.866 134.13C323.698 126.651 323.178 118.898 323.243 111.311C323.323 101.944 321.128 93.4728 318.051 85.0907C316.513 80.8993 314.754 76.7314 312.95 72.4845C312.845 72.2386 312.74 71.9925 312.636 71.7461C310.931 67.7368 309.195 63.6523 307.574 59.4104M329.876 141.578L307.667 59.3747M329.876 141.578L329.877 141.58C329.91 141.687 329.98 141.834 330.061 142.003C330.072 142.027 330.083 142.051 330.095 142.075C330.191 142.278 330.302 142.517 330.399 142.781C330.587 143.294 330.719 143.89 330.594 144.48C330.293 144.562 329.793 144.586 329.113 144.56C328.395 144.534 327.492 144.453 326.439 144.338C325.297 144.213 323.985 144.048 322.549 143.868C321.334 143.715 320.03 143.551 318.666 143.391C312.719 142.693 305.644 142.068 299.91 142.771L329.876 141.578ZM307.574 59.4104L307.667 59.3747M307.574 59.4104C307.574 59.4105 307.574 59.4107 307.574 59.4108L307.667 59.3747M307.574 59.4104C307.135 58.2773 307.112 56.8643 307.212 55.3553C307.255 54.7062 307.321 54.0361 307.388 53.3602C307.399 53.249 307.41 53.1376 307.421 53.0262C307.498 52.2365 307.571 51.4418 307.605 50.6614C307.673 49.099 307.584 47.6048 307.068 46.3372C306.554 45.0748 305.612 44.0306 303.958 43.3694M307.667 59.3747C307.052 57.7865 307.266 55.6207 307.487 53.3703C307.886 49.3229 308.312 45.002 303.995 43.2765M303.958 43.3694C303.958 43.3694 303.958 43.3695 303.958 43.3695L303.995 43.2765M303.958 43.3694C303.958 43.3694 303.958 43.3693 303.957 43.3693L303.995 43.2765M303.958 43.3694C302.633 42.8473 300.164 41.3845 296.917 39.3753C295.701 38.6227 294.375 37.7929 292.958 36.9057C290.585 35.4207 287.955 33.775 285.154 32.0619C276.208 26.5896 265.534 20.44 255.977 16.683C251.078 14.7621 245.566 11.9724 241.17 9.41792C238.972 8.14068 237.052 6.92131 235.626 5.89781C234.914 5.38616 234.323 4.92236 233.883 4.52389C233.446 4.12884 233.145 3.78787 233.028 3.52151L233.026 3.51684L233.026 3.51679C232.977 3.38825 232.837 3.25627 232.578 3.12983C232.324 3.00502 231.971 2.89404 231.529 2.79719C230.645 2.60361 229.42 2.47028 227.936 2.38735C224.97 2.22151 220.99 2.25781 216.685 2.40877C208.076 2.71069 198.181 3.47078 192.536 3.98563C177.791 5.36229 157.897 4.87331 137.462 4.31437C136.786 4.29586 136.108 4.27727 135.431 4.25867C115.639 3.71554 95.4837 3.16243 79.1159 4.22036M303.995 43.2765L3.27554 4.29564M79.1159 4.22036L79.1094 4.12057L79.116 4.22035C79.116 4.22035 79.1159 4.22036 79.1159 4.22036ZM79.1159 4.22036C69.066 4.88593 59.6132 4.4108 50.313 3.74959C48.4508 3.61719 46.5949 3.47734 44.7415 3.33769C37.337 2.77979 29.9737 2.22497 22.4184 2.16056C20.2937 2.14245 16.0847 2.1066 12.1121 2.36335C10.1255 2.49172 8.20098 2.69311 6.62709 3.00568C5.84011 3.16197 5.14312 3.34561 4.57092 3.56082C3.99719 3.77658 3.55664 4.02129 3.27554 4.29564M3.27554 4.29564C3.27591 4.29526 3.27628 4.2949 3.27665 4.29452L3.20569 4.22407L3.27554 4.29564ZM8.92985 66.2744L8.83062 66.2867L8.92991 66.2749C8.92991 66.2748 8.92985 66.2746 8.92985 66.2744ZM6.96902 123.96L6.87369 123.93L6.96852 123.962C6.96868 123.961 6.96886 123.961 6.96902 123.96Z" fill="#BED35A" fill-opacity="0.82" stroke="white" stroke-width="0.2"/>
</svg>
