<svg width="342" height="149" viewBox="0 0 342 149" fill="none" xmlns="http://www.w3.org/2000/svg">
<path d="M-30.577 6.25685L-30.5771 6.25687C-30.1692 7.51953 -29.5957 8.78463 -28.9786 10.054C-28.773 10.4769 -28.5623 10.9007 -28.3514 11.325C-27.9307 12.1715 -27.5091 13.0197 -27.1248 13.8665C-23.4931 21.5083 -22.8575 29.4447 -22.8849 37.2117C-22.9186 46.8002 -20.3833 55.4609 -16.8498 64.0271C-15.0829 68.3105 -13.067 72.5689 -10.9984 76.908C-10.8787 77.1591 -10.7588 77.4105 -10.6387 77.6622C-8.68501 81.7585 -6.69466 85.9317 -4.83364 90.2667M-30.577 6.25685L333.33 81.8144M-30.577 6.25685L-30.578 6.25415C-30.6168 6.14479 -30.6972 5.99425 -30.7894 5.8215C-30.8022 5.79761 -30.8151 5.77329 -30.8283 5.74859C-30.9387 5.54091 -31.0655 5.29665 -31.1766 5.0272C-31.3928 4.50286 -31.5447 3.89478 -31.4073 3.29114C-31.0639 3.20374 -30.4921 3.1768 -29.7174 3.19961C-28.904 3.22357 -27.8799 3.3017 -26.6873 3.41455C-25.3941 3.53691 -23.9071 3.69964 -22.2796 3.87775C-20.9033 4.02837 -19.4266 4.18997 -17.8818 4.34745C-11.1458 5.03409 -3.13462 5.63998 3.34913 4.89275M-30.577 6.25685L3.34913 4.89275M-4.83364 90.2667C-4.32976 91.4258 -4.29546 92.8736 -4.39952 94.4192C-4.44428 95.084 -4.515 95.7705 -4.5863 96.4627C-4.59803 96.5766 -4.60979 96.6906 -4.62144 96.8048C-4.704 97.6135 -4.78178 98.4273 -4.8156 99.2261C-4.8833 100.825 -4.774 102.353 -4.18209 103.647C-3.59247 104.937 -2.51936 106.004 -0.637158 106.675C0.863865 107.202 3.66628 108.687 7.35416 110.729C8.73513 111.493 10.241 112.336 11.851 113.238C14.5464 114.747 17.5335 116.419 20.7144 118.16C30.8751 123.72 42.9974 129.965 53.8407 133.767C59.3962 135.709 65.6525 138.539 70.6436 141.133C73.1392 142.43 75.3201 143.669 76.9398 144.709C77.7495 145.23 78.4205 145.701 78.921 146.107C79.4171 146.509 79.759 146.856 79.8933 147.128L79.8957 147.133L79.8955 147.133C79.9517 147.264 80.1132 147.4 80.4091 147.53C80.7003 147.657 81.1014 147.769 81.6036 147.867C82.6072 148.061 83.9968 148.192 85.677 148.27C89.0365 148.425 93.5433 148.369 98.4158 148.194C108.16 147.845 119.358 147.019 125.745 146.466C142.428 144.987 164.95 145.393 188.087 145.868C188.853 145.884 189.62 145.9 190.387 145.916C212.795 146.378 235.616 146.849 254.14 145.688C265.511 144.959 276.214 145.401 286.746 146.034C288.855 146.16 290.956 146.295 293.055 146.429C301.441 146.965 309.781 147.498 318.335 147.528C320.74 147.537 325.506 147.553 330.003 147.272C332.251 147.131 334.43 146.915 336.211 146.588C337.102 146.424 337.891 146.232 338.539 146.009C339.188 145.785 339.687 145.531 340.006 145.248C341.022 144.312 341.538 143.009 341.736 141.505C341.934 140 341.812 138.303 341.559 136.59C341.352 135.184 341.057 133.773 340.782 132.454C340.722 132.167 340.663 131.885 340.606 131.608C340.288 130.061 340.031 128.676 340.035 127.645C340.062 119.969 338.888 112.344 337.443 104.722C337.027 102.529 336.588 100.335 336.15 98.141C335.065 92.7127 333.979 87.2787 333.231 81.8281M-4.83364 90.2667C-4.83369 90.2666 -4.83373 90.2665 -4.83378 90.2663L-4.92548 90.3062L-4.83359 90.2668C-4.83361 90.2667 -4.83363 90.2667 -4.83364 90.2667ZM333.231 81.8281L333.33 81.8144M333.231 81.8281C333.231 81.8282 333.231 81.8284 333.231 81.8286L333.33 81.8144M333.231 81.8281C330.64 63.7593 328.56 40.7496 335.102 22.7621M333.33 81.8144C330.739 63.7439 328.663 40.7563 335.197 22.7947M335.102 22.7621L335.197 22.7947M335.102 22.7621C335.162 22.5886 335.261 22.1267 335.385 21.4392C335.509 20.7555 335.656 19.8569 335.814 18.8169C336.129 16.7368 336.486 14.0927 336.775 11.4724C337.064 8.85161 337.285 6.25702 337.331 4.27522C337.354 3.28373 337.333 2.44954 337.255 1.84339C337.216 1.53987 337.164 1.29845 337.098 1.1246C337.031 0.945745 336.958 0.861601 336.894 0.834779L336.89 0.833275L336.89 0.833206C336.638 0.715224 336.166 0.620884 335.515 0.55022C334.868 0.480032 334.056 0.434329 333.132 0.407687C331.284 0.354408 328.995 0.377505 326.694 0.431827C324.26 0.489283 321.81 0.581806 319.858 0.655502C318.124 0.720991 316.784 0.771614 316.198 0.76955C304.589 0.728637 293.019 1.09131 281.468 1.45413L281.405 1.45611C269.876 1.81825 258.366 2.17981 246.856 2.13925C241.877 2.1217 236.88 2.10241 231.87 2.08306C178.296 1.87616 123.126 1.6631 70.0291 3.51428C61.7227 3.80568 53.1543 3.73138 44.5703 3.65695C41.8366 3.63325 39.1014 3.60953 36.3725 3.59761C25.0727 3.54824 13.8803 3.70101 3.34913 4.89275M335.102 22.7621C335.102 22.7616 335.102 22.7611 335.103 22.7605L335.197 22.7947M335.197 22.7947L3.34913 4.89275" fill="#B89BED" fill-opacity="0.93" stroke="white" stroke-width="0.2"/>
</svg>
